<?xml version="1.0" encoding="UTF-8"?>
<svg width="11px" height="20px" viewBox="0 0 11 20" version="1.1" xmlns="http://www.w3.org/2000/svg" xmlns:xlink="http://www.w3.org/1999/xlink">
    <!-- Generator: sketchtool 63.1 (101010) - https://sketch.com -->
    <title>27EFCBF9-5042-4F7F-A438-057E9E6B6465</title>
    <desc>Created with sketchtool.</desc>
    <g id="Design" stroke="none" stroke-width="1" fill="none" fill-rule="evenodd">
        <g id="[U2]-Home-page-Default" transform="translate(-1654.000000, -3860.000000)">
            <g id="Most-popular-courses-Copy" transform="translate(0.000000, 3461.000000)">
                <g id="Arrow/slider/R" transform="translate(1635.000000, 385.000000)">
                    <g id="24x24/Arrow/slider/R" transform="translate(12.000000, 12.000000)">
                        <g id="24x24/Arrow/slider">
                            <g id="24x24/Arrow_ic">
                                <g id="-Round-/-Navigation-/-chevron_right">
                                    <polygon id="Path" points="0 0 24 0 24 24 0 24"></polygon>
                                    <path d="M17.589267,11.4109576 L8.42267235,2.24436297 C8.09685506,1.91854568 7.57018026,1.91854568 7.24436297,2.24436297 C6.91854568,2.57018026 6.91854568,3.09685506 7.24436297,3.42267235 L15.8217834,12.0000928 L7.24436297,20.5775132 C6.91854568,20.9033305 6.91854568,21.4300053 7.24436297,21.7558226 C7.40686146,21.9183211 7.62017979,22 7.83353719,22 C8.04685552,22 8.26021292,21.9183211 8.42271141,21.7558226 L17.5893061,12.5892279 C17.9150843,12.2634497 17.9150843,11.7367749 17.589267,11.4109576 Z" id="🔹-Icon-Color" fill="#283040"></path>
                                </g>
                            </g>
                        </g>
                    </g>
                </g>
            </g>
        </g>
    </g>
</svg>