<?xml version="1.0" encoding="UTF-8"?>
<svg width="7px" height="12px" viewBox="0 0 7 12" version="1.1" xmlns="http://www.w3.org/2000/svg" xmlns:xlink="http://www.w3.org/1999/xlink">
    <!-- Generator: sketchtool 63.1 (101010) - https://sketch.com -->
    <title>8FF9AEB8-B659-4798-A703-5FB31E0B531A</title>
    <desc>Created with sketchtool.</desc>
    <g id="Design" stroke="none" stroke-width="1" fill="none" fill-rule="evenodd">
        <g id="[U4]-Detail-exam" transform="translate(-773.000000, -4318.000000)">
            <g id="Content" transform="translate(723.000000, 566.000000)">
                <g id="Go-back-&amp;-Go-to" transform="translate(0.000000, 3718.000000)">
                    <g id="Go-back-to-Home" transform="translate(42.000000, 28.000000)">
                        <g id="24x24/Arrow/inactive_ic-Copy" transform="translate(12.000000, 12.000000) scale(-1, 1) translate(-12.000000, -12.000000) ">
                            <g id="24x24/Arrow/inactive_ic">
                                <g id="24x24/Arrow_ic">
                                    <g id="-Round-/-Navigation-/-chevron_right">
                                        <polygon id="Path" points="0 0 24 0 24 24 0 24"></polygon>
                                        <path d="M9.29,6.71 C8.9,7.1 8.9,7.73 9.29,8.12 L13.17,12 L9.29,15.88 C8.9,16.27 8.9,16.9 9.29,17.29 C9.68,17.68 10.31,17.68 10.7,17.29 L15.29,12.7 C15.68,12.31 15.68,11.68 15.29,11.29 L10.7,6.7 C10.32,6.32 9.68,6.32 9.29,6.71 Z" id="🔹-Icon-Color" fill="#67758D"></path>
                                    </g>
                                </g>
                            </g>
                        </g>
                    </g>
                </g>
            </g>
        </g>
    </g>
</svg>